<svg xmlns="http://www.w3.org/2000/svg" viewBox="0 0 645 152">
		<path fill="#00529c" d="M174.054,38.15l34.793,-0c14.091,-0 24.596,6.174 24.596,19.183c-0,9.537 -4.875,14.847 -13.329,17.665l-0,0.218c10.081,2.062 15.282,7.481 15.282,16.692c0,18.101 -15.936,21.892 -29.483,21.892l-31.859,0l0,-75.65Zm315.476,-0l34.793,-0c14.085,-0 24.602,6.174 24.602,19.183c0,9.537 -4.874,14.847 -13.329,17.665l0,0.218c10.082,2.062 15.276,7.481 15.276,16.692c0,18.101 -15.929,21.892 -29.476,21.892l-31.866,0l0,-75.65Zm65.814,-0l35.984,-0c13.438,-0 24.385,6.072 24.385,19.08c-0,10.076 -4.766,16.795 -14.521,19.068l0,0.218c6.495,1.736 6.931,7.481 10.729,16.692l7.366,20.592l-21.022,0l-4.336,-13.649c-4.119,-13.009 -6.726,-16.269 -14.2,-16.269l-4.228,0l0,29.918l-20.157,0l0,-75.65Zm-160.391,-0l20.157,-0l-0,30.891l0.218,0l22.757,-30.891l24.275,-0l-27.958,35.221l30.13,40.429l-25.691,0l-23.513,-34.357l-0.218,0l-0,34.357l-20.157,0l-0,-75.65Zm-76.425,-0l25.684,-0l25.582,51.375l0.212,0l-0.321,-51.375l18.428,-0l-0,75.65l-25.044,0l-26.44,-51.702l-0.212,0l0.641,51.702l-18.53,0l-0,-75.65Zm-56.672,-0l24.711,-0l29.156,75.65l-22.111,0l-5.636,-16.147l-28.394,0l-5.963,16.147l-20.484,0l28.721,-75.65Zm362.987,-0.002l20.157,-0l0,75.651l-20.157,-0l0,-75.651Zm-430.632,61.35l5.963,-0c7.373,-0 15.065,-1.089 15.065,-8.782c0,-8.237 -7.91,-8.992 -14.853,-8.992l-6.175,-0l0,17.774Zm315.476,-0l5.963,-0c7.366,-0 15.065,-1.089 15.065,-8.782c0,-8.237 -7.91,-8.992 -14.847,-8.992l-6.181,-0l0,17.774Zm-235.476,-45.739l-0.218,-0l-9.755,29.591l18.972,0l-8.999,-29.591Zm301.29,15.82l5.31,0c6.508,0 14.745,-0.217 14.745,-8.781c-0,-7.039 -7.046,-8.339 -14.745,-8.339l-5.31,-0l0,17.12Zm-381.29,-1.511l5.637,-0c6.61,-0 13.444,-1.627 13.444,-8.026c0,-6.93 -6.507,-7.583 -13.233,-7.583l-5.848,-0l0,15.609Zm315.476,-0l5.637,-0c6.616,-0 13.438,-1.627 13.438,-8.026c-0,-6.93 -6.495,-7.583 -13.22,-7.583l-5.855,-0l0,15.609Z"/>
		<path fill="#00529c" d="M128.692,-0l-105.499,-0c-12.81,-0 -23.193,10.639 -23.193,23.763l-0,104.48c-0,12.996 10.191,23.565 22.834,23.757l105.8,-0c12.81,-0 23.199,-10.633 23.199,-23.757l0.045,-104.48c0,-13.124 -10.376,-23.763 -23.186,-23.763m-92.964,139.824l-5.752,0.064c-6.969,-0 -12.618,-5.726 -12.618,-12.791l-0.032,-1.006l-0,-96.487l0.038,-5.2c0.263,-6.835 5.457,-12.33 12.253,-12.33l11.702,-0c10.607,-0 19.203,9.223 19.203,20.093c0,5.38 -2.107,10.261 -5.521,13.809l-29.854,30.296l27.984,28.497c3.606,3.721 5.783,8.602 5.783,13.95c0,11.657 -10.376,21.105 -23.186,21.105m86.027,-0.096l-52.17,-0.019c0,-0 6.027,-13.035 6.027,-21.105c0,-9.845 -3.285,-18.633 -8.435,-24.449l-17.845,-18.19l18.21,-18.818c5.425,-5.093 9.025,-14.137 9.025,-24.442c-0,-8.161 -2.255,-15.386 -5.886,-20.631l12.637,-0c10.607,-0 19.209,9.223 19.209,20.093c-0,5.38 -2.107,10.261 -5.521,13.809l-29.285,29.982l60.823,62.021c-1.928,1.211 -4.355,1.749 -6.789,1.749m12.74,-19.363l-43.587,-44.426l20.759,-21.098c4.221,-5.285 6.905,-13.24 6.905,-22.136c-0,-8.212 -2.287,-15.623 -5.951,-20.868l9.288,0.281c6.968,0 12.618,5.727 12.618,12.792l-0.032,95.455Z"/>
	</svg>