<svg xmlns="http://www.w3.org/2000/svg" viewBox="0 0 522 152">
	<path fill="#0d2b5b" d="M0.615,104.452c0,-7.55 -0.131,-13.871 -0.539,-19.526l14.278,0l0.678,9.703l0.395,-0c3.233,-5.121 9.158,-11.19 20.204,-11.19c8.623,-0 15.351,4.857 18.182,12.125l0.276,0c2.29,-3.634 4.977,-6.332 8.071,-8.209c3.64,-2.567 7.826,-3.916 13.205,-3.916c10.914,-0 21.948,7.406 21.948,28.431l0,38.643l-16.161,-0l0,-36.233c0,-10.902 -3.772,-17.378 -11.718,-17.378c-5.655,-0 -9.834,4.053 -11.579,8.767c-0.486,1.799 -0.758,3.648 -0.81,5.511l0,39.339l-16.161,-0l-0,-37.996c-0,-9.139 -3.634,-15.615 -11.316,-15.615c-6.183,-0 -10.357,4.857 -11.856,9.427c-0.665,1.619 -0.941,3.514 -0.941,5.385l-0,38.799l-16.156,-0l0,-46.067Zm159.67,30.313c0,5.919 0.27,11.706 0.936,15.754l-14.95,-0l-1.074,-7.268l-0.407,-0c-4.042,5.121 -10.914,8.743 -19.382,8.743c-13.205,-0 -20.611,-9.553 -20.611,-19.526c0,-16.581 14.668,-24.916 38.925,-24.784l0,-1.074c0,-4.317 -1.757,-11.453 -13.343,-11.453c-6.47,-0 -13.198,2.026 -17.642,4.845l-3.232,-10.776c4.851,-2.969 13.337,-5.793 23.699,-5.793c21.019,-0 27.087,13.349 27.087,27.609l-0.006,23.723Zm-16.167,-16.293c-11.724,-0.276 -22.896,2.285 -22.896,12.251c0,6.465 4.186,9.433 9.433,9.433c6.591,0 11.448,-4.323 12.929,-9.031c0.363,-1.177 0.545,-2.402 0.54,-3.634l0,-9.019l-0.006,0Zm27.609,-14.02c0,-7.55 -0.138,-13.871 -0.528,-19.526l14.531,0l0.803,9.847l0.408,-0c2.824,-5.127 9.967,-11.334 20.875,-11.334c11.454,-0 23.297,7.406 23.297,28.161l0,38.913l-16.563,-0l0,-37.03c0,-9.427 -3.508,-16.587 -12.527,-16.587c-6.591,-0 -11.184,4.719 -12.929,9.708c-0.54,1.476 -0.672,3.503 -0.672,5.374l0,38.529l-16.701,-0l0.006,-46.055Zm131.215,-45.876l0,73.491c0,6.734 0.276,14.02 0.54,18.452l-14.806,-0l-0.678,-10.363l-0.275,0c-3.898,7.268 -11.856,11.844 -21.409,11.844c-15.627,-0 -28.011,-13.331 -28.011,-33.522c-0.144,-21.96 13.589,-35.033 29.36,-35.033c9.02,-0 15.484,3.772 18.446,8.641l0.282,0l0,-33.504l16.557,0l0,-0.006l-0.006,0Zm-16.557,53.689c0,-1.337 -0.132,-2.956 -0.407,-4.311c-1.482,-6.453 -6.723,-11.712 -14.273,-11.712c-10.638,-0 -16.575,9.433 -16.575,21.684c0,11.976 5.931,20.737 16.443,20.737c6.723,0 12.653,-4.587 14.267,-11.724c0.407,-1.475 0.551,-3.1 0.551,-4.845l0,-9.829l-0.006,0Zm28.275,38.254l0,-65.593l16.713,0l0,65.593l-16.713,-0Zm28.419,-44.442c-0,-8.888 -0.126,-15.226 -0.528,-21.145l14.41,0l0.528,12.515l0.546,0c3.232,-9.289 10.902,-12.515 17.924,-12.515c1.613,0 2.549,-0.276 3.892,0l-0,14.554c-1.589,-0.351 -3.212,-0.532 -4.84,-0.539c-7.963,-0 -13.348,5.121 -14.824,12.515c-0.326,1.692 -0.504,3.41 -0.533,5.133l-0,33.93l-16.575,-0l-0,-44.448Zm44.46,44.442l-0,-65.593l16.689,0l-0,65.593l-16.689,-0Z"/>
	<path fill="#fdd213" d="M508.188,15.556c-8.27,-9.433 -17.061,-5.164 -24.047,-1.692c-2.939,1.452 -24.149,13.475 -24.149,13.475c-11.622,4.792 -20.671,-0.438 -24.221,-4.839c-0.34,-0.418 -0.647,-0.861 -0.918,-1.326l-0.827,-1.433c-1.399,-2.419 -2.954,-4.744 -4.654,-6.962c-1.032,-1.344 -2.149,-2.62 -3.346,-3.82c-7.952,-8.03 -20.659,-13.649 -41.899,-3.442c-10.057,5.829 -42.817,24.545 -42.817,24.545c-12.312,5.067 -21.727,-1.104 -24.785,-5.631c-0.138,-0.17 -0.258,-0.353 -0.36,-0.546l-0.402,-0.684l-2.074,-3.394c-0.937,-1.487 -1.941,-2.929 -3.011,-4.323c-1.042,-1.336 -2.161,-2.609 -3.352,-3.814c-7.898,-7.982 -20.539,-13.589 -41.594,-3.574c-12.731,7.268 -42.343,24.196 -42.343,24.196l-0.012,0.012l-21.672,12.384l11.214,13.768c4.719,4.498 13.589,11.874 27.309,5.655c0,0 37.87,-21.93 38.02,-21.996c32.376,-17.768 48.352,-0.791 55.416,10.525c0.246,0.353 0.444,0.737 0.665,1.079l0.012,0.018c0.09,0.138 0.144,0.264 0.222,0.396l0.798,1.307c3.442,5.217 8.869,8.587 15.34,8.431c3.568,-0.072 5.99,-1.235 9.516,-3.196l36.641,-21.252l0.078,-0.036c32.784,-17.985 49.029,0.102 55.967,11.418c0.54,0.977 1.152,1.912 1.782,2.782c3.436,4.659 8.173,7.712 14.194,7.562c3.976,-0.078 8.431,-2.465 9.097,-2.903l43.926,-25.354c0.012,0.012 -4.473,-6.77 -13.714,-17.336Z"/>
</svg>