<svg xmlns="http://www.w3.org/2000/svg" viewBox="0 0 202 60">
	<path fill="#0061ae" d="M23.857,40.393c-4.665,0.03 -9.301,0.03 -13.966,0.059c-3.248,-5.167 -6.496,-10.363 -9.743,-15.53l13.67,-0c2.48,3.749 4.931,7.529 7.411,11.278c-1.181,-2.627 -2.362,-5.285 -3.573,-7.912c2.628,-4.134 5.285,-8.268 7.913,-12.401c0.916,-1.447 2.126,-2.48 3.927,-2.48l11.427,-0c-5.699,8.975 -11.397,17.981 -17.096,26.957l0.03,0.029Zm19.752,0c-4.665,0.03 -9.3,0.03 -13.965,0.059c-0.916,-1.447 -1.831,-2.923 -2.746,-4.37l7.854,-10.216l6.259,10.334c-1.181,-2.627 -2.362,-5.285 -3.572,-7.912c2.627,-4.134 7.44,-11.722 10.097,-15.856c0.916,-1.447 2.126,-2.48 3.927,-2.48l11.427,0c-5.699,8.976 -13.553,21.465 -19.251,30.441l-0.03,0Zm-29.85,-17.42l-13.729,-0c2.804,-8.09 8.001,-15.117 17.715,-19.369c14.497,-6.318 30.382,-3.956 43.58,4.222c-11.663,-3.69 -22.764,-3.189 -31.002,-0.295c-7.293,2.569 -12.873,7.588 -16.594,15.442l0.03,-0Zm65.311,17.509l-10.128,-0l-0.265,-4.37l-7.707,-0l-2.893,4.37l-10.275,-0l13.7,-21.377c1.181,-1.801 2.421,-2.598 4.576,-2.598l11.87,-0l1.122,23.975Zm-10.6,-9.626l-4.281,0l3.513,-5.875l0.532,-0l0.236,5.875Zm71.836,9.626l-10.127,-0l-0.266,-4.37l-7.706,-0l-2.894,4.37l-10.275,-0l13.7,-21.377c1.181,-1.801 2.421,-2.598 4.577,-2.598l11.869,-0l1.122,23.975Zm-10.6,-9.626l-4.281,0l3.514,-5.875l0.531,-0l0.236,5.875Zm71.836,9.626l-10.127,-0l-0.266,-4.37l-7.706,-0l-2.894,4.37l-10.275,-0l13.7,-21.377c1.152,-1.801 2.421,-2.598 4.577,-2.598l11.869,-0l1.122,23.975Zm-10.6,-9.626l-4.281,0l3.514,-5.875l0.531,-0l0.236,5.875Zm-103.074,-14.32l10.63,0l-2.303,8.12l5.285,-0l2.303,-8.12l10.629,0l-6.761,23.946l-10.63,-0l2.333,-8.238l-5.285,-0l-2.333,8.238l-10.629,-0l6.761,-23.946Zm61.502,0l10.452,0l-0.118,0.473l0.148,-0.502l2.362,11.249l3.13,-11.19l10.452,-0l-6.732,23.945l-10.364,0l-0.029,0.089l-0.03,-0.089l-0.029,0l0.029,-0.059l-2.391,-11.249l-3.159,11.279l-10.453,-0l6.732,-23.946Z"/>
	<path fill="#e62129" d="M131.507,56.366l10.039,0l0.62,-2.923l-5.728,0l0.354,-1.653l5.374,-0l0.62,-2.923l-5.374,-0l0.355,-1.713l5.61,0l0.62,-2.923l-9.921,0l-2.569,12.106l0,0.029Zm12.49,-9.034l1.712,4.192l-3.838,4.842l4.222,0l2.008,-2.923l0.738,2.923l4.37,0l-1.772,-4.93l3.248,-4.104l-4.045,-0l-1.713,2.716l-0.561,-2.716l-4.369,-0Zm9.064,12.666l4.134,0l1.033,-4.813l0.03,0c0.206,0.473 0.501,0.827 0.885,1.063c0.384,0.207 0.857,0.325 1.388,0.325c0.65,0 1.211,-0.118 1.742,-0.384c0.502,-0.236 0.974,-0.59 1.358,-1.004c0.384,-0.413 0.709,-0.915 0.945,-1.446c0.266,-0.561 0.443,-1.152 0.591,-1.742c0.147,-0.65 0.206,-1.27 0.206,-1.861c0,-0.59 -0.118,-1.092 -0.325,-1.564c-0.206,-0.443 -0.501,-0.798 -0.944,-1.063c-0.414,-0.266 -0.975,-0.384 -1.654,-0.384c-0.679,-0 -1.269,0.148 -1.771,0.413c-0.502,0.266 -0.975,0.768 -1.388,1.447l-0.03,-0l0.355,-1.653l-3.839,-0l-2.716,12.666Zm5.758,-8.119c0.059,-0.207 0.088,-0.414 0.177,-0.65c0.059,-0.207 0.147,-0.413 0.265,-0.591c0.119,-0.177 0.237,-0.324 0.414,-0.442c0.147,-0.119 0.354,-0.178 0.561,-0.178c0.236,0 0.413,0.059 0.502,0.178c0.118,0.118 0.177,0.265 0.206,0.442c0.03,0.178 0.03,0.384 0,0.62c-0.029,0.237 -0.059,0.473 -0.118,0.709c-0.059,0.236 -0.118,0.473 -0.177,0.709c-0.059,0.236 -0.148,0.413 -0.266,0.59c-0.118,0.177 -0.236,0.325 -0.413,0.414c-0.148,0.118 -0.325,0.147 -0.561,0.147c-0.236,0 -0.413,-0.059 -0.502,-0.147c-0.118,-0.119 -0.177,-0.237 -0.236,-0.443c-0.03,-0.177 -0.03,-0.384 -0,-0.62c0.029,-0.237 0.059,-0.502 0.118,-0.768l0.03,0.03Zm8.503,-4.547l-1.919,9.034l4.133,0l0.709,-3.277c0.059,-0.325 0.207,-0.649 0.384,-0.945c0.177,-0.295 0.384,-0.531 0.62,-0.767c0.236,-0.207 0.502,-0.384 0.767,-0.502c0.296,-0.118 0.561,-0.178 0.857,-0.178c0.177,0 0.354,0 0.531,0.03c0.177,0.03 0.295,0.059 0.384,0.118l0.768,-3.632c-0.177,-0.059 -0.384,-0.088 -0.65,-0.088c-0.325,-0 -0.649,0.059 -0.915,0.177c-0.295,0.118 -0.561,0.266 -0.827,0.472c-0.266,0.207 -0.502,0.443 -0.738,0.709c-0.236,0.266 -0.443,0.561 -0.62,0.886l-0.03,-0l0.443,-2.037l-3.897,-0Zm10.629,3.661c0.03,-0.177 0.089,-0.355 0.148,-0.561c0.059,-0.207 0.177,-0.414 0.295,-0.591c0.118,-0.177 0.266,-0.325 0.443,-0.443c0.177,-0.118 0.384,-0.177 0.62,-0.177c0.236,0 0.413,0.059 0.502,0.177c0.118,0.118 0.177,0.266 0.207,0.443c0.029,0.177 0.029,0.384 0.029,0.591c-0.029,0.206 -0.059,0.413 -0.088,0.561l-2.156,-0Zm5.315,1.919l0.118,-0.532c0.177,-0.767 0.236,-1.476 0.207,-2.096c-0.03,-0.649 -0.148,-1.181 -0.414,-1.653c-0.266,-0.473 -0.62,-0.827 -1.151,-1.093c-0.502,-0.265 -1.181,-0.384 -2.008,-0.384c-1.742,0 -3.13,0.384 -4.193,1.122c-1.063,0.768 -1.742,1.89 -2.066,3.425c-0.325,1.565 -0.148,2.776 0.56,3.632c0.709,0.856 1.949,1.27 3.691,1.27c0.709,-0 1.417,-0.03 2.067,-0.118c0.65,-0.089 1.299,-0.207 1.89,-0.414l0.502,-2.332c-0.355,0.177 -0.798,0.324 -1.3,0.413c-0.501,0.089 -1.033,0.148 -1.623,0.148c-0.296,-0 -0.591,-0.03 -0.857,-0.059c-0.265,-0.03 -0.472,-0.119 -0.679,-0.207c-0.177,-0.118 -0.325,-0.236 -0.413,-0.413c-0.089,-0.178 -0.118,-0.414 -0.059,-0.68l5.698,0l0.03,-0.029Zm0.118,3.159c0.561,0.148 1.122,0.295 1.712,0.384c0.591,0.089 1.152,0.148 1.772,0.148c0.502,-0 1.033,-0.059 1.594,-0.148c0.561,-0.089 1.122,-0.266 1.654,-0.531c0.531,-0.237 0.974,-0.591 1.387,-1.004c0.414,-0.414 0.68,-0.945 0.798,-1.595c0.118,-0.561 0.088,-1.004 -0.059,-1.358c-0.178,-0.325 -0.414,-0.59 -0.709,-0.797c-0.325,-0.177 -0.679,-0.325 -1.063,-0.413c-0.384,-0.089 -0.768,-0.148 -1.122,-0.207c-0.354,-0.059 -0.62,-0.118 -0.856,-0.177c-0.236,-0.059 -0.325,-0.177 -0.266,-0.325c0.03,-0.148 0.089,-0.236 0.207,-0.325c0.088,-0.088 0.236,-0.147 0.354,-0.177c0.148,-0.059 0.295,-0.089 0.472,-0.089c0.178,0 0.355,-0.029 0.532,-0.029c0.472,-0 0.915,0.059 1.329,0.148c0.413,0.088 0.826,0.206 1.24,0.383l0.531,-2.421c-0.502,-0.118 -0.974,-0.206 -1.476,-0.265c-0.502,-0.06 -1.004,-0.119 -1.535,-0.119c-0.502,0 -1.063,0.03 -1.654,0.119c-0.59,0.088 -1.122,0.236 -1.653,0.442c-0.532,0.207 -0.975,0.532 -1.359,0.916c-0.383,0.413 -0.649,0.915 -0.797,1.565c-0.118,0.59 -0.118,1.033 0.059,1.387c0.148,0.355 0.384,0.62 0.709,0.827c0.325,0.207 0.679,0.354 1.063,0.443c0.384,0.088 0.768,0.177 1.092,0.236c0.355,0.059 0.62,0.148 0.827,0.236c0.207,0.089 0.295,0.236 0.266,0.414c-0.03,0.118 -0.089,0.206 -0.207,0.295c-0.118,0.088 -0.236,0.148 -0.413,0.177c-0.148,0.059 -0.325,0.089 -0.502,0.089c-0.177,0.029 -0.355,0.029 -0.532,0.029c-0.531,0 -1.063,-0.059 -1.565,-0.207c-0.501,-0.147 -0.944,-0.354 -1.269,-0.59l-0.561,2.569l-0,-0.03Zm9.123,0c0.561,0.148 1.122,0.295 1.713,0.384c0.59,0.089 1.151,0.148 1.771,0.148c0.502,-0 1.034,-0.059 1.595,-0.148c0.561,-0.089 1.122,-0.266 1.653,-0.531c0.532,-0.237 0.974,-0.591 1.388,-1.004c0.413,-0.414 0.679,-0.945 0.797,-1.595c0.118,-0.561 0.089,-1.004 -0.059,-1.358c-0.177,-0.325 -0.413,-0.59 -0.709,-0.797c-0.324,-0.177 -0.679,-0.325 -1.063,-0.413c-0.383,-0.089 -0.767,-0.148 -1.122,-0.207c-0.354,-0.059 -0.62,-0.118 -0.856,-0.177c-0.236,-0.059 -0.325,-0.177 -0.295,-0.325c0.03,-0.148 0.089,-0.236 0.207,-0.325c0.088,-0.088 0.236,-0.147 0.354,-0.177c0.148,-0.059 0.295,-0.089 0.472,-0.089c0.178,0 0.355,-0.029 0.532,-0.029c0.472,-0 0.915,0.059 1.328,0.148c0.414,0.088 0.827,0.206 1.241,0.383l0.531,-2.421c-0.502,-0.118 -0.974,-0.206 -1.476,-0.265c-0.502,-0.06 -1.004,-0.119 -1.536,-0.119c-0.502,0 -1.063,0.03 -1.653,0.119c-0.591,0.088 -1.122,0.236 -1.653,0.442c-0.532,0.207 -0.975,0.532 -1.359,0.916c-0.383,0.413 -0.649,0.915 -0.797,1.565c-0.118,0.59 -0.118,1.033 0.059,1.387c0.148,0.355 0.384,0.62 0.709,0.827c0.325,0.207 0.679,0.354 1.063,0.443c0.384,0.088 0.767,0.177 1.092,0.236c0.355,0.059 0.62,0.148 0.827,0.236c0.207,0.089 0.295,0.236 0.266,0.414c-0.03,0.118 -0.089,0.206 -0.207,0.295c-0.118,0.088 -0.236,0.148 -0.413,0.177c-0.148,0.059 -0.325,0.089 -0.502,0.089c-0.177,0.029 -0.355,0.029 -0.532,0.029c-0.531,0 -1.063,-0.059 -1.565,-0.207c-0.502,-0.147 -0.944,-0.354 -1.269,-0.59l-0.561,2.569l0.029,-0.03Z"/>
</svg>