<svg xmlns="http://www.w3.org/2000/svg" viewBox="0 0 300 42.4">
	<title>Zaleva</title>
	<linearGradient id="gradient" gradientUnits="userSpaceOnUse" x1="40.4635" y1="99.5172" x2="248.7065" y2="-46.2961">
		<stop offset="0" style="stop-color:#1C9FFD"/>
		<stop offset="0.3066" style="stop-color:#2EC9F4"/>
		<stop offset="0.5183" style="stop-color:#3FECFF"/>
		<stop offset="0.7138" style="stop-color:#00E9B2"/>
		<stop offset="0.8334" style="stop-color:#4FF174"/>
		<stop offset="0.916" style="stop-color:#E1FF00"/>
		<stop offset="1" style="stop-color:#59E900"/>
	</linearGradient>
	<path fill="url(#gradient)" d="M190,7.9V0.7h-8.9C186,1.5,188.6,3.7,190,7.9z M7.7,9.8c2.8-1.8,5.2-8.9,5.2-8.9S5.4,0,2.6,1.8 C0.4,3.2-0.2,6.1,1.2,8.3C2.6,10.5,5.5,11.2,7.7,9.8z M245.7,0.2c-2.5-0.7-5.2,0.7-5.9,3.2c-0.9,3.1,2,10.1,2,10.1s6.2-4.3,7.1-7.5 C249.7,3.5,248.2,0.9,245.7,0.2z M185.7,20.6c0-2.6-2.1-4.7-4.8-4.7c-3.2,0-9.2,4.7-9.2,4.7s5.9,4.8,9.2,4.8 C183.5,25.4,185.7,23.2,185.7,20.6z M116.6,37.2v-30c0-3.7,0.5-5.6,2.4-6.7l-12.4,0c1.5,0.9,2.2,2.4,2.2,5.1v30.9 c0,2.7-0.7,4.2-2.4,5H119C117.6,41,116.6,39.7,116.6,37.2z M171.3,0.7h-12.5c1.5,0.8,2.3,2.3,2.3,4.9v31c0,2.7-0.7,4.3-2.5,5.2h12.6 c-1.5-0.7-2.3-1.9-2.3-4.3V5C168.9,2.7,169.7,1.3,171.3,0.7z M188.2,38.6c-1.8,1.5-3.9,2.5-6.3,3.1h8.9l1.6-8.6 C191.2,35.5,190,37.1,188.2,38.6z M34.8,0.7h-8.4c-2.9,0-5.6,2.5-7.4,5.9C13.9,16.1,3.6,38.8,0,41.7h2.3c5.5,0,9.3-2.5,12.7-9 C20.6,22,29.4,1.1,34.8,0.7z M26.7,32.6c-2.8,1.8-5.2,8.9-5.2,8.9s7.6,0.8,10.3-0.9c2.2-1.4,2.9-4.3,1.5-6.6 C31.9,31.8,28.9,31.2,26.7,32.6z M138.4,33.9c-1.5-2.2-4.4-2.7-6.6-1.3c-2.7,1.8-4.9,9.1-4.9,9.1s7.5,0.6,10.3-1.2 C139.3,39,139.9,36,138.4,33.9z M51.1,36.2c-0.6,2.6,1,5.1,3.6,5.7c2.6,0.6,5.1-1,5.7-3.6c0.7-3.2-2.6-10-2.6-10S51.8,33,51.1,36.2z M261.9,36.2c-0.6,2.6,1,5.1,3.6,5.7c2.6,0.6,5.1-1,5.7-3.6c0.7-3.2-2.6-10-2.6-10S262.6,33,261.9,36.2z M74.3,6.4 c-1.4-3.5-3.8-6-6.7-6h-8.4C64.6,0.7,70.9,22,75.3,32.8c2.7,6.6,6.2,9.2,11.6,9.2h2.3C85.9,39,78.3,16,74.3,6.4z M285.1,6.4 c-1.4-3.5-3.8-6-6.7-6H270c5.4,0.4,11.7,21.6,16.1,32.5c2.7,6.6,6.2,9.2,11.6,9.2h2.3C296.7,39,289.1,16,285.1,6.4z M215.7,0.2h-8.4 c5.4,0.4,11.7,21.9,16.1,32.8c2.7,6.7,6.2,9.3,11.6,9.3h2.3c-3.3-3-10.9-26.3-14.9-36.1C221,2.8,218.6,0.2,215.7,0.2z"/>
</svg>