<svg xmlns="http://www.w3.org/2000/svg" viewBox="0 0 300 42" fill="#0d6efd">
	<path d="M215.692,0.228l-8.424,-0c5.401,0.368 11.695,21.655 16.065,32.551c2.666,6.647 6.17,9.221 11.64,9.221l2.308,0c-3.271,-3.01 -10.925,-26.055 -14.883,-35.739c-1.443,-3.513 -3.779,-6.033 -6.706,-6.033Zm69.425,6.083c-1.443,-3.487 -3.793,-5.979 -6.706,-5.979l-8.424,-0c5.401,0.354 11.695,21.438 16.065,32.211c2.666,6.578 6.17,9.125 11.639,9.125l2.309,0c-3.271,-2.983 -10.925,-25.782 -14.883,-35.357Zm-210.797,-0c-1.443,-3.487 -3.793,-5.979 -6.707,-5.979l-8.424,-0c5.401,0.354 11.695,21.438 16.065,32.211c2.666,6.578 6.17,9.125 11.64,9.125l2.308,0c-3.27,-2.983 -10.925,-25.782 -14.882,-35.357Zm187.6,29.61c-0.577,2.546 1.031,5.053 3.587,5.625c2.556,0.572 5.098,-1.022 5.676,-3.555c0.7,-3.133 -2.625,-9.915 -2.625,-9.915c-0,-0 -5.923,4.658 -6.638,7.845Zm-210.797,-0c-0.578,2.546 1.03,5.053 3.586,5.625c2.556,0.572 5.099,-1.022 5.676,-3.555c0.701,-3.133 -2.625,-9.915 -2.625,-9.915c0,-0 -5.923,4.658 -6.637,7.845Zm87.274,-2.351c-1.471,-2.152 -4.425,-2.711 -6.583,-1.253c-2.68,1.811 -4.947,9.016 -4.947,9.016c-0,0 7.544,0.613 10.265,-1.226c2.172,-1.457 2.735,-4.385 1.265,-6.537Zm-111.682,-1.255c-2.776,1.756 -5.195,8.866 -5.195,8.866c0,0 7.572,0.79 10.293,-0.926c2.213,-1.389 2.872,-4.304 1.457,-6.497c-1.402,-2.193 -4.343,-2.833 -6.555,-1.443Zm8.094,-31.612l-8.424,-0c-2.914,-0 -5.552,2.451 -7.394,5.884c-5.07,9.411 -15.377,31.856 -18.991,34.771l2.309,0c5.469,0 9.276,-2.492 12.697,-8.962c5.621,-10.61 14.361,-31.339 19.803,-31.693Zm153.412,37.526c-1.814,1.498 -3.862,2.52 -6.335,3.105l8.905,0l1.649,-8.512c-1.264,2.37 -2.419,3.95 -4.219,5.407Zm-16.875,-37.563l-12.506,-0c1.471,0.83 2.254,2.288 2.254,4.835l-0,30.685c-0,2.683 -0.66,4.236 -2.529,5.148l12.629,0c-1.47,-0.653 -2.295,-1.92 -2.295,-4.249l0,-32.102c0,-2.261 0.756,-3.65 2.447,-4.317Zm-54.786,36.241l0,-29.733c0,-3.622 0.536,-5.57 2.391,-6.605l-12.381,0.041c1.456,0.844 2.185,2.356 2.185,5.094l-0,30.631c-0,2.71 -0.674,4.126 -2.364,4.957l12.657,0c-1.485,-0.667 -2.488,-1.947 -2.488,-4.385Zm69.091,-16.479c0,-2.588 -2.13,-4.699 -4.754,-4.699c-3.23,0 -9.18,4.699 -9.18,4.699c-0,-0 5.895,4.712 9.18,4.712c2.624,0 4.754,-2.111 4.754,-4.712Zm60.054,-20.241c-2.528,-0.722 -5.153,0.708 -5.882,3.214c-0.893,3.078 2.007,10.052 2.007,10.052c-0,-0 6.198,-4.304 7.118,-7.45c0.729,-2.493 -0.728,-5.094 -3.243,-5.816Zm-237.968,9.491c2.776,-1.757 5.194,-8.853 5.194,-8.853c0,0 -7.572,-0.803 -10.293,0.913c-2.214,1.403 -2.872,4.317 -1.456,6.497c1.401,2.192 4.341,2.846 6.555,1.443Zm182.298,-1.835l-0,-7.177l-8.932,-0c4.864,0.858 7.448,2.969 8.932,7.177Z"/>
</svg>