<svg xmlns="http://www.w3.org/2000/svg" viewBox="0 0 40 40">
	<title>Zaleva</title>
	<linearGradient id="gradient-1" gradientUnits="userSpaceOnUse" x1="4.8324" y1="8.2458" x2="14.2696" y2="-1.1914">
		<stop offset="0" style="stop-color:#2AFFD8"/>
		<stop offset="1" style="stop-color:#00E9B2"/>
	</linearGradient>
	<path fill="url(#gradient-1)" d="M10.6,8.9c2.7-1.7,5.1-8.7,5.1-8.7s-7.4-0.8-10,0.9C3.5,2.5,2.8,5.3,4.2,7.5C5.6,9.6,8.4,10.3,10.6,8.9z"/>
	<linearGradient id="gradient-2" gradientUnits="userSpaceOnUse" x1="0.7456" y1="37.6835" x2="37.6536" y2="0.7754">
		<stop offset="0" style="stop-color:#1C9FFD"/>
		<stop offset="0.2609" style="stop-color:#36D9FF"/>
		<stop offset="0.5" style="stop-color:#3FECFF"/>
		<stop offset="0.7215" style="stop-color:#34EBB6"/>
		<stop offset="1" style="stop-color:#17E900"/>
	</linearGradient>
	<path fill="url(#gradient-2)" d="M36.9,0.1h-8.2c-2.8,0-5.4,2.4-7.2,5.8C16.6,15.1,6.6,37.1,3.1,40h2.2c5.3,0,9-2.4,12.4-8.8 C23.1,20.8,31.6,0.4,36.9,0.1z"/>
	<linearGradient id="gradient-3" gradientUnits="userSpaceOnUse" x1="25.3771" y1="41.1922" x2="34.8205" y2="31.7488">
		<stop offset="0" style="stop-color:#3FECFF"/>
		<stop offset="0.2978" style="stop-color:#88F58B"/>
		<stop offset="1" style="stop-color:#E1FF00"/>
	</linearGradient>
	<path fill="url(#gradient-3)" d="M29.1,31.1c-2.7,1.7-5.1,8.7-5.1,8.7s7.4,0.8,10-0.9c2.2-1.4,2.8-4.2,1.4-6.4C34.1,30.4,31.2,29.7,29.1,31.1z"/>
</svg>