<svg xmlns="http://www.w3.org/2000/svg" viewBox="0 0 300 300">
	<title>Product Not Available</title>
	<g>
		<path fill="#a8e7ef" d="M245.962,145.138l-0,99.1c-0,3.012 -1.65,5.783 -4.3,7.219l-87.749,47.544c-2.442,1.322 -5.387,1.322 -7.822,-0l-87.756,-47.544c-2.643,-1.436 -4.294,-4.207 -4.294,-7.219l0,-99.1l191.921,-0Z"/>
		<path fill="#70d9e6" d="M245.962,162.969l-0,33.718l-50.704,27.472c-2.013,1.087 -4.381,1.287 -6.548,0.556l-38.709,-13.108l0,-48.638l95.961,0Z"/>
		<path fill="#70d9e6" d="M228.612,145.138l0,113.389l13.05,-7.071c2.649,-1.436 4.3,-4.207 4.3,-7.22l-0,-99.098l-17.35,0Z"/>
		<path fill="#70d9e6" d="M150.002,145.138l-0,154.862c-1.348,-0 -2.69,-0.329 -3.918,-0.993l-87.749,-47.551c-2.643,-1.442 -4.294,-4.206 -4.294,-7.219l0,-99.099l95.961,-0Z"/>
		<path fill="#3ad1e0" d="M150.002,162.969l-0,48.638l-38.716,13.108c-2.16,0.731 -4.535,0.53 -6.541,-0.556l-50.704,-27.472l0,-33.718l95.961,0Z"/>
		<path fill="#3ad1e0" d="M132.981,145.138l-0,146.764l13.106,7.102c1.223,0.665 2.569,0.994 3.916,0.994l-0,-154.86l-17.022,-0Z"/>
		<path fill="#756f6f" d="M150,93.144l-95.962,51.994l95.962,51.994l95.962,-51.994l-95.962,-51.994Z"/>
		<path fill="#5b5555" d="M226.219,155.838l-76.217,41.292l-76.217,-41.292l49.925,-27.052c16.401,-8.887 36.182,-8.887 52.583,0l49.926,27.052Z"/>
		<path fill="#3ad1e0" d="M175.632,265.956c-1.607,0 -3.164,-0.858 -3.984,-2.371c-1.191,-2.198 -0.375,-4.946 1.824,-6.137l10.385,-5.627c2.2,-1.192 4.946,-0.374 6.137,1.824c1.191,2.199 0.375,4.946 -1.824,6.137l-10.385,5.627c-0.685,0.372 -1.424,0.547 -2.153,0.547Z"/>
	</g>
	<g>
		<path fill="#a8e7ef" d="M276.489,110.116l-30.526,35.022l-95.963,-51.994l31.735,-36.407c1.263,-1.449 3.361,-1.828 5.051,-0.912l88.564,47.983c2.311,1.253 2.866,4.326 1.139,6.308Z"/>
		<path fill="#70d9e6" d="M192.393,69.701c0,7.159 -5.804,12.968 -12.961,12.968c-5.816,0 -10.735,-3.826 -12.376,-9.092l14.524,-16.66c6.139,1.025 10.813,6.358 10.813,12.784Z"/>
		<path fill="#d4f2f6" d="M23.511,110.116l30.527,35.022l95.962,-51.994l-31.735,-36.407c-1.263,-1.449 -3.361,-1.828 -5.051,-0.912l-88.563,47.984c-2.312,1.252 -2.867,4.325 -1.14,6.307Z"/>
		<path fill="#a8e7ef" d="M95.633,76.792c0,9.014 -7.31,16.318 -16.324,16.318c-7.012,0 -12.992,-4.424 -15.299,-10.631l28.419,-15.396c2.014,2.71 3.204,6.072 3.204,9.709Z"/>
		<path fill="#a8e7ef" d="M20.842,156.379l33.196,-11.241l95.962,51.994l-38.712,13.108c-2.164,0.733 -4.535,0.531 -6.545,-0.558l-84.54,-45.804c-3.151,-1.707 -2.755,-6.349 0.639,-7.499Z"/>
		<path fill="#d4f2f6" d="M279.158,156.379l-33.196,-11.241l-95.962,51.994l38.712,13.108c2.164,0.733 4.536,0.531 6.545,-0.558l84.54,-45.804c3.151,-1.707 2.756,-6.349 -0.639,-7.499Z"/>
	</g>
	<g>
		<path fill="#ffdf1a" d="M191.45,160.051c0,5.848 -1.213,11.42 -3.404,16.466l-38.046,20.614l-38.046,-20.614c-2.191,-5.046 -3.404,-10.618 -3.404,-16.466c-0,-22.889 18.561,-41.451 41.45,-41.451c22.889,-0 41.45,18.561 41.45,41.451Z"/>
		<path fill="#ffd21a" d="M191.445,160.051c-0,5.848 -1.214,11.42 -3.399,16.466l-26.782,14.512c8.535,-7.594 13.913,-18.658 13.913,-30.978c0,-20.107 -14.312,-36.864 -33.307,-40.648c2.632,-0.525 5.347,-0.797 8.131,-0.797c22.888,-0.001 41.444,18.549 41.444,41.445Z"/>
		<path fill="#ffa01a" d="M158.236,176.915c-1.039,0 -2.084,-0.356 -2.937,-1.084c-1.466,-1.251 -3.572,-1.973 -5.779,-1.979l-0.03,-0c-2.196,-0 -4.295,0.708 -5.762,1.944c-1.912,1.612 -4.768,1.369 -6.379,-0.543c-1.612,-1.911 -1.369,-4.767 0.543,-6.379c3.119,-2.63 7.236,-4.077 11.598,-4.077l0.057,0c4.384,0.014 8.514,1.486 11.632,4.147c1.901,1.623 2.127,4.481 0.503,6.383c-0.896,1.049 -2.167,1.588 -3.446,1.588Z"/>
		<path fill="#ffa01a" d="M169.733,160.445l-0.031,-0c-2.501,-0.018 -4.534,-2.058 -4.517,-4.559c0.017,-2.489 2.02,-4.496 4.505,-4.496l0.032,0l0.042,0.001c2.5,0.018 4.513,2.058 4.496,4.559c-0.018,2.489 -2.041,4.495 -4.527,4.495Z"/>
		<path fill="#ffa01a" d="M130.305,160.445l-0.032,-0c-2.5,-0.018 -4.534,-2.058 -4.517,-4.559c0.018,-2.5 2.035,-4.532 4.537,-4.496l0.042,0.001c2.501,0.018 4.513,2.058 4.496,4.559c-0.017,2.489 -2.041,4.495 -4.526,4.495Z"/>
	</g>
	<g>
		<path fill="#ffdf1a" d="M134.957,15.944c-1.769,-1.768 -4.635,-1.768 -6.403,-0l-3.735,3.734l-3.735,-3.734c-1.768,-1.768 -4.634,-1.768 -6.403,-0c-1.768,1.767 -1.768,4.634 -0,6.402l3.735,3.735l-3.735,3.735c-1.768,1.767 -1.768,4.634 -0,6.402c0.884,0.884 2.043,1.326 3.201,1.326c1.159,0 2.318,-0.442 3.202,-1.326l3.735,-3.735l3.735,3.735c0.884,0.884 2.043,1.326 3.201,1.326c1.159,0 2.317,-0.442 3.202,-1.326c1.767,-1.768 1.767,-4.634 -0,-6.402l-3.735,-3.735l3.735,-3.735c1.767,-1.768 1.767,-4.635 -0,-6.402Z"/>
		<path fill="#ffdf1a" d="M265.815,55.612l3.735,-3.734c1.768,-1.768 1.768,-4.635 -0,-6.403c-1.768,-1.768 -4.634,-1.768 -6.403,0l-3.735,3.735l-3.735,-3.735c-1.768,-1.768 -4.634,-1.768 -6.403,0c-1.768,1.768 -1.768,4.634 0,6.403l3.735,3.734l-3.735,3.735c-1.768,1.768 -1.768,4.634 0,6.403c0.884,0.884 2.043,1.326 3.202,1.326c1.158,-0 2.317,-0.443 3.201,-1.326l3.735,-3.735l3.735,3.735c0.884,0.884 2.043,1.326 3.201,1.326c1.159,-0 2.318,-0.443 3.202,-1.326c1.768,-1.768 1.768,-4.635 -0,-6.403l-3.735,-3.735Z"/>
		<g>
			<path fill="#bcea73" d="M62.989,60.471c-0,-9.015 7.307,-16.322 16.321,-16.322c9.014,0 16.321,7.307 16.321,16.322c0,9.014 -7.307,16.321 -16.321,16.321c-9.014,-0 -16.321,-7.307 -16.321,-16.321"/>
			<path fill="#a3dd42" d="M71.032,74.535c6.407,-1.476 11.18,-7.212 11.18,-14.066c0,-6.848 -4.766,-12.59 -11.172,-14.067c2.424,-1.432 5.25,-2.252 8.271,-2.252c9.01,-0 16.319,7.309 16.319,16.319c0,9.017 -7.309,16.326 -16.319,16.326c-3.021,0 -5.855,-0.82 -8.279,-2.26"/>
		</g>
		<g>
			<circle fill="#64b9fc" cx="179.43" cy="56.739" r="12.964"/>
			<path fill="#3cb1fb" d="M192.393,56.737c0,7.162 -5.806,12.968 -12.962,12.968c-2.4,0 -4.651,-0.651 -6.576,-1.795c5.088,-1.173 8.88,-5.729 8.88,-11.173c0,-5.439 -3.786,-10 -8.875,-11.173c1.926,-1.138 4.171,-1.79 6.571,-1.79c7.156,0 12.962,5.806 12.962,12.963Z"/>
		</g>
		<g>
			<circle fill="#ff7c68" cx="205.732" cy="15.196" r="15.196"/>
			<path fill="#df695a" d="M220.928,15.195c-0,8.395 -6.806,15.201 -15.195,15.201c-2.812,0 -5.451,-0.764 -7.708,-2.104c5.965,-1.375 10.409,-6.715 10.409,-13.097c0,-6.375 -4.437,-11.723 -10.402,-13.098c2.256,-1.333 4.888,-2.097 7.701,-2.097c8.389,-0 15.195,6.806 15.195,15.195Z"/>
		</g>
	</g>
</svg>