<svg xmlns="http://www.w3.org/2000/svg" viewBox="0 0 100 100">
	<title>Zaleva</title>
	<rect fill="#fff" x="0" y="0" width="100" height="100"/>
	<linearGradient id="gradient-1" gradientUnits="userSpaceOnUse" x1="25.3926" y1="69.0686" x2="40.7326" y2="84.4087" gradientTransform="matrix(1 0 0 -1 0 100)">
		<stop offset="0" style="stop-color:#2AFFD8"/>
		<stop offset="1" style="stop-color:#00E9B2"/>
	</linearGradient>
	<path fill="url(#gradient-1)" d="M34.7,31.9c4.4-2.8,8.3-14.1,8.3-14.1s-12-1.3-16.3,1.5c-3.6,2.3-4.7,6.8-2.4,10.4 C26.6,33.1,31.1,34.2,34.7,31.9z"/>
	<linearGradient id="gradient-2" gradientUnits="userSpaceOnUse" x1="18.741" y1="21.2883" x2="78.7344" y2="81.2819" gradientTransform="matrix(1 0 0 -1 0 100)">
		<stop offset="0" style="stop-color:#1C9FFD"/>
		<stop offset="0.2609" style="stop-color:#36D9FF"/>
		<stop offset="0.5" style="stop-color:#3FECFF"/>
		<stop offset="0.7215" style="stop-color:#34EBB6"/>
		<stop offset="1" style="stop-color:#17E900"/>
	</linearGradient>
	<path fill="url(#gradient-2)" d="M77.5,17.6H64.1c-4.6,0-8.8,3.9-11.7,9.4c-8,15-24.2,50.7-29.9,55.4h3.6c8.6,0,14.6-3.9,20.2-14.3 C55,51.3,68.9,18.1,77.5,17.6z"/>
	<linearGradient id="gradient-3" gradientUnits="userSpaceOnUse" x1="58.7458" y1="15.5812" x2="74.0959" y2="30.9313" gradientTransform="matrix(1 0 0 -1 0 100)">
		<stop offset="0" style="stop-color:#3FECFF"/>
		<stop offset="0.2978" style="stop-color:#88F58B"/>
		<stop offset="1" style="stop-color:#E1FF00"/>
	</linearGradient>
	<path fill="url(#gradient-3)" d="M64.8,68c-4.4,2.8-8.3,14.1-8.3,14.1s12,1.3,16.3-1.5c3.6-2.3,4.6-6.8,2.3-10.4C72.9,66.9,68.2,65.8,64.8,68z"/>
</svg>
